<svg aria-hidden="true" style="position: absolute; width: 0; height: 0; overflow: hidden;" version="1.1" xmlns="http://www.w3.org/2000/svg" xmlns:xlink="http://www.w3.org/1999/xlink">
<defs>
<symbol id="copy" viewBox="0 0 32 32">
<title>copy</title>
<path d="M25.313 28v-18.688h-14.625v18.688h14.625zM25.313 6.688q1.063 0 1.875 0.781t0.813 1.844v18.688q0 1.063-0.813 1.875t-1.875 0.813h-14.625q-1.063 0-1.875-0.813t-0.813-1.875v-18.688q0-1.063 0.813-1.844t1.875-0.781h14.625zM21.313 1.313v2.688h-16v18.688h-2.625v-18.688q0-1.063 0.781-1.875t1.844-0.813h16z"></path>
</symbol>
<symbol id="darkmode" viewBox="0 0 32 32">
<title>darkmode</title>
<path d="M16 24q3.313 0 5.656-2.344t2.344-5.656-2.344-5.656-5.656-2.344q-1.625 0-3.313 0.75 2.063 0.938 3.344 2.906t1.281 4.344-1.281 4.344-3.344 2.906q1.688 0.75 3.313 0.75zM26.688 11.563l4.375 4.438-4.375 4.438v6.25h-6.25l-4.438 4.375-4.438-4.375h-6.25v-6.25l-4.375-4.438 4.375-4.438v-6.25h6.25l4.438-4.375 4.438 4.375h6.25v6.25z"></path>
</symbol>
<symbol id="file-add" viewBox="0 0 32 32">
<title>file-add</title>
<path d="M17.313 12h7.375l-7.375-7.313v7.313zM21.313 21.313v-2.625h-4v-4h-2.625v4h-4v2.625h4v4h2.625v-4h4zM18.688 2.688l8 8v16q0 1.063-0.813 1.844t-1.875 0.781h-16q-1.063 0-1.875-0.781t-0.813-1.844l0.063-21.375q0-1.063 0.781-1.844t1.844-0.781h10.688z"></path>
</symbol>
<symbol id="file-empty" viewBox="0 0 32 32">
<title>file-empty</title>
<path d="M28.681 7.159c-0.694-0.947-1.662-2.053-2.724-3.116s-2.169-2.030-3.116-2.724c-1.612-1.182-2.393-1.319-2.841-1.319h-15.5c-1.378 0-2.5 1.121-2.5 2.5v27c0 1.378 1.122 2.5 2.5 2.5h23c1.378 0 2.5-1.122 2.5-2.5v-19.5c0-0.448-0.137-1.23-1.319-2.841zM24.543 5.457c0.959 0.959 1.712 1.825 2.268 2.543h-4.811v-4.811c0.718 0.556 1.584 1.309 2.543 2.268zM28 29.5c0 0.271-0.229 0.5-0.5 0.5h-23c-0.271 0-0.5-0.229-0.5-0.5v-27c0-0.271 0.229-0.5 0.5-0.5 0 0 15.499-0 15.5 0v7c0 0.552 0.448 1 1 1h7v19.5z"></path>
</symbol>
<symbol id="file-text" viewBox="0 0 32 32">
<title>file-text</title>
<path d="M28.681 7.159c-0.694-0.947-1.662-2.053-2.724-3.116s-2.169-2.030-3.116-2.724c-1.612-1.182-2.393-1.319-2.841-1.319h-15.5c-1.378 0-2.5 1.121-2.5 2.5v27c0 1.378 1.122 2.5 2.5 2.5h23c1.378 0 2.5-1.122 2.5-2.5v-19.5c0-0.448-0.137-1.23-1.319-2.841zM24.543 5.457c0.959 0.959 1.712 1.825 2.268 2.543h-4.811v-4.811c0.718 0.556 1.584 1.309 2.543 2.268zM28 29.5c0 0.271-0.229 0.5-0.5 0.5h-23c-0.271 0-0.5-0.229-0.5-0.5v-27c0-0.271 0.229-0.5 0.5-0.5 0 0 15.499-0 15.5 0v7c0 0.552 0.448 1 1 1h7v19.5z"></path>
<path d="M23 26h-14c-0.552 0-1-0.448-1-1s0.448-1 1-1h14c0.552 0 1 0.448 1 1s-0.448 1-1 1z"></path>
<path d="M23 22h-14c-0.552 0-1-0.448-1-1s0.448-1 1-1h14c0.552 0 1 0.448 1 1s-0.448 1-1 1z"></path>
<path d="M23 18h-14c-0.552 0-1-0.448-1-1s0.448-1 1-1h14c0.552 0 1 0.448 1 1s-0.448 1-1 1z"></path>
</symbol>
<symbol id="file-picture" viewBox="0 0 32 32">
<title>file-picture</title>
<path d="M26 28h-20v-4l6-10 8.219 10 5.781-4v8z"></path>
<path d="M26 15c0 1.657-1.343 3-3 3s-3-1.343-3-3 1.343-3 3-3c1.657 0 3 1.343 3 3z"></path>
<path d="M28.681 7.159c-0.694-0.947-1.662-2.053-2.724-3.116s-2.169-2.030-3.116-2.724c-1.612-1.182-2.393-1.319-2.841-1.319h-15.5c-1.378 0-2.5 1.121-2.5 2.5v27c0 1.378 1.122 2.5 2.5 2.5h23c1.378 0 2.5-1.122 2.5-2.5v-19.5c0-0.448-0.137-1.23-1.319-2.841zM24.543 5.457c0.959 0.959 1.712 1.825 2.268 2.543h-4.811v-4.811c0.718 0.556 1.584 1.309 2.543 2.268zM28 29.5c0 0.271-0.229 0.5-0.5 0.5h-23c-0.271 0-0.5-0.229-0.5-0.5v-27c0-0.271 0.229-0.5 0.5-0.5 0 0 15.499-0 15.5 0v7c0 0.552 0.448 1 1 1h7v19.5z"></path>
</symbol>
<symbol id="file-music" viewBox="0 0 32 32">
<title>file-music</title>
<path d="M28.681 7.159c-0.694-0.947-1.662-2.053-2.724-3.116s-2.169-2.030-3.116-2.724c-1.612-1.182-2.393-1.319-2.841-1.319h-15.5c-1.378 0-2.5 1.121-2.5 2.5v27c0 1.378 1.121 2.5 2.5 2.5h23c1.378 0 2.5-1.122 2.5-2.5v-19.5c0-0.448-0.137-1.23-1.319-2.841v0zM24.543 5.457c0.959 0.959 1.712 1.825 2.268 2.543h-4.811v-4.811c0.718 0.556 1.584 1.309 2.543 2.268v0zM28 29.5c0 0.271-0.229 0.5-0.5 0.5h-23c-0.271 0-0.5-0.229-0.5-0.5v-27c0-0.271 0.229-0.5 0.5-0.5 0 0 15.499-0 15.5 0v7c0 0.552 0.448 1 1 1h7v19.5z"></path>
<path d="M23.634 12.227c-0.232-0.19-0.536-0.266-0.83-0.207l-10 2c-0.467 0.094-0.804 0.504-0.804 0.981v7.402c-0.588-0.255-1.271-0.402-2-0.402-2.209 0-4 1.343-4 3s1.791 3 4 3 4-1.343 4-3v-7.18l8-1.6v4.183c-0.588-0.255-1.271-0.402-2-0.402-2.209 0-4 1.343-4 3s1.791 3 4 3 4-1.343 4-3v-10c0-0.3-0.134-0.583-0.366-0.773z"></path>
</symbol>
<symbol id="file-video" viewBox="0 0 32 32">
<title>file-video</title>
<path d="M12 12l10 7-10 7v-14z"></path>
<path d="M28.681 7.159c-0.694-0.947-1.662-2.053-2.724-3.116s-2.169-2.030-3.116-2.724c-1.612-1.182-2.393-1.319-2.841-1.319h-15.5c-1.378 0-2.5 1.121-2.5 2.5v27c0 1.378 1.122 2.5 2.5 2.5h23c1.378 0 2.5-1.122 2.5-2.5v-19.5c0-0.448-0.137-1.23-1.319-2.841zM24.543 5.457c0.959 0.959 1.712 1.825 2.268 2.543h-4.811v-4.811c0.718 0.556 1.584 1.309 2.543 2.268zM28 29.5c0 0.271-0.229 0.5-0.5 0.5h-23c-0.271 0-0.5-0.229-0.5-0.5v-27c0-0.271 0.229-0.5 0.5-0.5 0 0 15.499-0 15.5 0v7c0 0.552 0.448 1 1 1h7v19.5z"></path>
</symbol>
<symbol id="file-zip" viewBox="0 0 32 32">
<title>file-zip</title>
<path d="M28.681 7.159c-0.694-0.947-1.662-2.053-2.724-3.116s-2.169-2.030-3.116-2.724c-1.612-1.182-2.393-1.319-2.841-1.319h-15.5c-1.378 0-2.5 1.121-2.5 2.5v27c0 1.378 1.121 2.5 2.5 2.5h23c1.378 0 2.5-1.122 2.5-2.5v-19.5c0-0.448-0.137-1.23-1.319-2.841v0 0zM24.543 5.457c0.959 0.959 1.712 1.825 2.268 2.543h-4.811v-4.811c0.718 0.556 1.584 1.309 2.543 2.268v0 0zM28 29.5c0 0.271-0.229 0.5-0.5 0.5h-23c-0.271 0-0.5-0.229-0.5-0.5v-27c0-0.271 0.229-0.5 0.5-0.5 0 0 15.499-0 15.5 0v7c0 0.552 0.448 1 1 1h7v19.5z"></path>
<path d="M8 2h4v2h-4v-2z"></path>
<path d="M12 4h4v2h-4v-2z"></path>
<path d="M8 6h4v2h-4v-2z"></path>
<path d="M12 8h4v2h-4v-2z"></path>
<path d="M8 10h4v2h-4v-2z"></path>
<path d="M12 12h4v2h-4v-2z"></path>
<path d="M8 14h4v2h-4v-2z"></path>
<path d="M12 16h4v2h-4v-2z"></path>
<path d="M8 26.5c0 0.825 0.675 1.5 1.5 1.5h5c0.825 0 1.5-0.675 1.5-1.5v-5c0-0.825-0.675-1.5-1.5-1.5h-2.5v-2h-4v8.5zM14 24v2h-4v-2h4z"></path>
</symbol>
</defs>
</svg>
