<svg aria-hidden="true" style="position: absolute; width: 0; height: 0; overflow: hidden;" version="1.1" xmlns="http://www.w3.org/2000/svg" xmlns:xlink="http://www.w3.org/1999/xlink">
<defs>
<symbol id="share" viewBox="0 0 50 50">
<path d="M6.25 25v16.667c0 1.725 0.702 3.292 1.831 4.419s2.694 1.831 4.419 1.831h25c1.725 0 3.292-0.702 4.419-1.831s1.831-2.694 1.831-4.419v-16.667c0-1.15-0.933-2.083-2.083-2.083s-2.083 0.933-2.083 2.083v16.667c0 0.575-0.231 1.094-0.61 1.473s-0.898 0.61-1.473 0.61h-25c-0.575 0-1.094-0.231-1.473-0.61s-0.61-0.898-0.61-1.473v-16.667c0-1.15-0.933-2.083-2.083-2.083s-2.083 0.933-2.083 2.083zM22.917 9.196v22.054c0 1.15 0.933 2.083 2.083 2.083s2.083-0.933 2.083-2.083v-22.054l4.777 4.777c0.815 0.815 2.133 0.815 2.946 0s0.815-2.133 0-2.946l-8.333-8.333c-0.192-0.192-0.421-0.346-0.675-0.452-0.51-0.21-1.085-0.21-1.596 0-0.246 0.102-0.475 0.252-0.675 0.452l-8.333 8.333c-0.815 0.815-0.815 2.133 0 2.946s2.133 0.815 2.946 0z"></path>
</symbol>
<symbol id="file-add" viewBox="0 0 50 50">
<path d="M44.814 11.186c-1.357-1.793-2.752-3.382-4.252-4.864l-0.004-0.004c-1.487-1.505-3.076-2.9-4.759-4.176l-0.11-0.080c-2.519-1.848-3.739-2.062-4.439-2.062h-24.219c-2.157 0.002-3.904 1.75-3.906 3.906v42.188c0.003 2.156 1.75 3.903 3.906 3.906h35.938c2.156-0.003 3.903-1.75 3.906-3.906v-30.469c-0-0.7-0.215-1.922-2.062-4.439zM38.35 8.527c1.237 1.225 2.396 2.521 3.474 3.884l0.068 0.090h-7.517v-7.517c1.453 1.147 2.75 2.306 3.972 3.54l0.003 0.003zM43.75 46.094c-0.006 0.429-0.352 0.775-0.78 0.781h-35.938c-0.429-0.006-0.776-0.352-0.781-0.781v-42.188c0.006-0.429 0.352-0.776 0.781-0.781h24.219v10.938c0 0.863 0.7 1.562 1.562 1.563h10.938z"></path>
<path d="M23.75 17.5h2.5v20h-2.5z"></path>
<path d="M35 26.25v2.5h-20v-2.5z"></path>
</symbol>
<symbol id="file-audio" viewBox="0 0 50 50">
<path d="M40.313 7.5h2.188v25.156c0 3.020-3.428 5.469-7.656 5.469s-7.656-2.45-7.656-5.469 3.428-5.469 7.656-5.469c0.052-0.001 0.113-0.002 0.174-0.002 1.979 0 3.815 0.615 5.326 1.663l-0.031-0.020v-12.58l-17.5 3.89v16.892c-0.001 3.019-3.429 5.469-7.657 5.469s-7.656-2.45-7.656-5.469 3.428-5.469 7.656-5.469c0.052-0.001 0.112-0.002 0.173-0.002 1.979 0 3.815 0.615 5.326 1.663l-0.031-0.020v-21.329z"></path>
</symbol>
<symbol id="file-download" viewBox="0 0 50 50">
<path d="M24.998 25.938l7.5-7.5h-5.624v-7.5h-3.75v7.5h-5.626zM31.817 22.869l-2.1 2.1 7.62 2.842-12.338 4.602-12.335-4.6 7.621-2.842-2.1-2.1-8.185 3.067v7.5l15 5.625 15-5.625v-7.5z"></path>
</symbol>
<symbol id="file-delete" viewBox="0 0 50 50">
<path d="M14.688 19.375v18.75c0.003 1.034 0.841 1.872 1.875 1.875h16.875c1.034-0.003 1.872-0.841 1.875-1.875v-18.75zM20.313 36.25h-1.875v-13.125h1.875zM24.063 36.25h-1.875v-13.125h1.875zM27.813 36.25h-1.875v-13.125h1.875zM31.563 36.25h-1.875v-13.125h1.875z"></path>
<path d="M35.781 13.75h-6.094v-2.344c-0.002-0.776-0.63-1.404-1.406-1.406h-6.563c-0.776 0.003-1.404 0.631-1.406 1.406v2.344h-6.094c-0.776 0.003-1.404 0.631-1.406 1.406v2.344h24.375v-2.344c-0.002-0.776-0.631-1.404-1.406-1.406h-0zM27.813 13.75h-5.625v-1.85h5.625z"></path>
</symbol>
<symbol id="copy" viewBox="0 0 50 50">
<path d="M39.551 43.75v-29.199h-22.852v29.199h22.852zM39.551 10.449q1.66 0 2.93 1.221t1.27 2.881v29.199q0 1.66-1.27 2.93t-2.93 1.27h-22.852q-1.66 0-2.93-1.27t-1.27-2.93v-29.199q0-1.66 1.27-2.881t2.93-1.221h22.852zM33.301 2.051v4.199h-25v29.199h-4.102v-29.199q0-1.66 1.221-2.93t2.881-1.27h25z"></path>
</symbol>
<symbol id="darkmode" viewBox="0 0 50 50">
<path d="M25 37.5q5.176 0 8.838-3.662t3.662-8.838-3.662-8.838-8.838-3.662q-2.539 0-5.176 1.172 3.223 1.465 5.225 4.541t2.002 6.787-2.002 6.787-5.225 4.541q2.637 1.172 5.176 1.172zM41.699 18.066l6.836 6.934-6.836 6.934v9.766h-9.766l-6.934 6.836-6.934-6.836h-9.766v-9.766l-6.836-6.934 6.836-6.934v-9.766h9.766l6.934-6.836 6.934 6.836h9.766v9.766z"></path>
</symbol>
<symbol id="file-image" viewBox="0 0 50 50">
<path d="M46.869 6.25c0.002 0.002 0.004 0.004 0.006 0.006v37.489c-0.002 0.002-0.004 0.004-0.006 0.006h-43.739c-0.002-0.002-0.004-0.004-0.006-0.006v-37.489c0.002-0.002 0.004-0.004 0.006-0.006h43.739zM46.875 3.125h-43.75c-1.719 0-3.125 1.406-3.125 3.125v37.5c0 1.719 1.406 3.125 3.125 3.125h43.75c1.719 0 3.125-1.406 3.125-3.125v-37.5c0-1.719-1.406-3.125-3.125-3.125v0z"></path>
<path d="M40.625 14.063c0 2.589-2.099 4.688-4.688 4.688s-4.688-2.099-4.688-4.688 2.099-4.688 4.688-4.688 4.688 2.099 4.688 4.688z"></path>
<path d="M43.75 40.625h-37.5v-6.25l10.938-18.75 12.5 15.625h3.125l10.938-9.375z"></path>
</symbol>
<symbol id="file-video" viewBox="0 0 50 50">
<path d="M0 6.25v37.5h50v-37.5h-50zM9.375 40.625h-6.25v-6.25h6.25v6.25zM9.375 28.125h-6.25v-6.25h6.25v6.25zM9.375 15.625h-6.25v-6.25h6.25v6.25zM37.5 40.625h-25v-31.25h25v31.25zM46.875 40.625h-6.25v-6.25h6.25v6.25zM46.875 28.125h-6.25v-6.25h6.25v6.25zM46.875 15.625h-6.25v-6.25h6.25v6.25zM18.75 15.625v18.75l12.5-9.375z"></path>
</symbol>
<symbol id="file-empty" viewBox="0 0 50 50">
<path d="M44.815 11.185c-1.085-1.479-2.596-3.208-4.257-4.868s-3.389-3.172-4.868-4.257c-2.518-1.847-3.74-2.060-4.44-2.060h-24.219c-2.154 0-3.906 1.752-3.906 3.906v42.188c0 2.154 1.752 3.906 3.906 3.906h35.938c2.154 0 3.906-1.752 3.906-3.906v-30.469c0-0.7-0.213-1.921-2.060-4.44zM38.348 8.527c1.499 1.499 2.676 2.851 3.544 3.973h-7.517v-7.517c1.122 0.868 2.475 2.045 3.973 3.544zM43.75 46.094c0 0.423-0.358 0.781-0.781 0.781h-35.938c-0.423 0-0.781-0.358-0.781-0.781v-42.188c0-0.423 0.358-0.781 0.781-0.781 0 0 24.217-0 24.219 0v10.938c0 0.863 0.7 1.563 1.563 1.563h10.938v30.469z"></path>
</symbol>
<symbol id="file-text" viewBox="0 0 50 50">
<path d="M44.815 11.185c-1.085-1.479-2.596-3.208-4.257-4.868s-3.389-3.172-4.868-4.257c-2.518-1.847-3.74-2.060-4.44-2.060h-24.219c-2.154 0-3.906 1.752-3.906 3.906v42.188c0 2.154 1.752 3.906 3.906 3.906h35.938c2.154 0 3.906-1.752 3.906-3.906v-30.469c0-0.7-0.213-1.921-2.060-4.44zM38.348 8.527c1.499 1.499 2.676 2.851 3.544 3.973h-7.517v-7.517c1.122 0.868 2.475 2.045 3.973 3.544zM43.75 46.094c0 0.423-0.358 0.781-0.781 0.781h-35.938c-0.423 0-0.781-0.358-0.781-0.781v-42.188c0-0.423 0.358-0.781 0.781-0.781 0 0 24.217-0 24.219 0v10.938c0 0.863 0.7 1.563 1.563 1.563h10.938v30.469z"></path>
<path d="M35.938 40.625h-21.875c-0.863 0-1.563-0.7-1.563-1.563s0.7-1.563 1.563-1.563h21.875c0.863 0 1.563 0.7 1.563 1.563s-0.7 1.563-1.563 1.563z"></path>
<path d="M35.938 34.375h-21.875c-0.863 0-1.563-0.7-1.563-1.563s0.7-1.563 1.563-1.563h21.875c0.863 0 1.563 0.7 1.563 1.563s-0.7 1.563-1.563 1.563z"></path>
<path d="M35.938 28.125h-21.875c-0.863 0-1.563-0.7-1.563-1.563s0.7-1.563 1.563-1.563h21.875c0.863 0 1.563 0.7 1.563 1.563s-0.7 1.563-1.563 1.563z"></path>
</symbol>
<symbol id="file-zip" viewBox="0 0 50 50">
<path d="M44.815 11.185c-1.084-1.479-2.596-3.208-4.257-4.868s-3.389-3.172-4.868-4.257c-2.518-1.847-3.74-2.060-4.44-2.060h-24.219c-2.154 0-3.906 1.752-3.906 3.906v42.188c0 2.154 1.752 3.906 3.906 3.906h35.938c2.154 0 3.906-1.752 3.906-3.906v-30.469c0-0.7-0.213-1.921-2.060-4.44v0 0zM38.348 8.527c1.499 1.499 2.676 2.851 3.544 3.973h-7.517v-7.517c1.122 0.868 2.475 2.045 3.973 3.544v0 0zM43.75 46.094c0 0.423-0.358 0.781-0.781 0.781h-35.938c-0.423 0-0.781-0.358-0.781-0.781v-42.188c0-0.423 0.358-0.781 0.781-0.781 0 0 24.217-0 24.219 0v10.938c0 0.863 0.699 1.563 1.563 1.563h10.938v30.469z"></path>
<path d="M12.5 3.125h6.25v3.125h-6.25v-3.125z"></path>
<path d="M18.75 6.25h6.25v3.125h-6.25v-3.125z"></path>
<path d="M12.5 9.375h6.25v3.125h-6.25v-3.125z"></path>
<path d="M18.75 12.5h6.25v3.125h-6.25v-3.125z"></path>
<path d="M12.5 15.625h6.25v3.125h-6.25v-3.125z"></path>
<path d="M18.75 18.75h6.25v3.125h-6.25v-3.125z"></path>
<path d="M12.5 21.875h6.25v3.125h-6.25v-3.125z"></path>
<path d="M18.75 25h6.25v3.125h-6.25v-3.125z"></path>
<path d="M12.5 41.406c0 1.289 1.055 2.344 2.344 2.344h7.813c1.289 0 2.344-1.055 2.344-2.344v-7.813c0-1.289-1.055-2.344-2.344-2.344h-3.906v-3.125h-6.25v13.281zM21.875 37.5v3.125h-6.25v-3.125h6.25z"></path>
</symbol>
</defs>
</svg>
